<?xml version="1.0" standalone="no"?><!DOCTYPE svg PUBLIC "-//W3C//DTD SVG 1.1//EN" "http://www.w3.org/Graphics/SVG/1.1/DTD/svg11.dtd"><svg class="icon" width="200px" height="200.00px" viewBox="0 0 1024 1024" version="1.1" xmlns="http://www.w3.org/2000/svg"><path fill="#ffffff" d="M788.48 410.112h-112.128c-24.064 0-92.16 11.776-115.2-2.56-4.608-16.384 10.24-46.08 14.336-60.416 11.776-41.472 23.04-82.432 34.816-124.416L660.48 41.984c6.656-23.552-24.064-33.792-36.864-15.872L218.112 582.656c-9.216 12.8 3.584 30.72 17.92 30.72h164.352c11.264 0 54.784-7.168 61.952 3.584 6.656 8.704-6.144 35.84-8.704 45.568-30.72 106.496-60.416 212.992-90.112 319.488-6.656 23.552 24.064 33.792 36.864 15.872l404.992-556.544c9.728-13.312-2.56-31.232-16.896-31.232z"  /></svg>