<?xml version="1.0" standalone="no"?><!DOCTYPE svg PUBLIC "-//W3C//DTD SVG 1.1//EN" "http://www.w3.org/Graphics/SVG/1.1/DTD/svg11.dtd"><svg t="1552450174453" class="icon" style="" viewBox="0 0 1024 1024" version="1.1" xmlns="http://www.w3.org/2000/svg" p-id="20645" xmlns:xlink="http://www.w3.org/1999/xlink" width="200" height="200"><defs><style type="text/css"></style></defs><path d="M899.446275 982.832183c-6.72797-48.199785-51.871769-371.078348-59.151737-422.654118-11.575948-82.023635-82.343633-103.911537-122.767453-103.911537l-94.231581 0.191999V114.068052C622.663507 50.612335 571.751734-0.563437 506.928023 0.00456c-31.071862 0.319999-59.071737 13.103942-78.847649 35.99984-18.399918 21.279905-28.335874 49.831778-28.007876 80.039643v340.854482l-99.463557 0.199999c-46.903791 2.031991-136.279393 32.287856-138.815381 132.175412-0.903996 35.447842-25.807885 277.502764-38.847827 400.566216a30.895862 30.895862 0 0 0 30.719863 34.143848h716.036811a2.087991 2.087991 0 0 1 0.631997 0 30.879862 30.879862 0 0 0 29.111871-41.151817z m-437.598052-867.132138c-0.167999-15.471931 4.43198-29.423869 12.967943-39.303825 8.143964-9.423958 19.455913-14.479936 32.711854-14.615935 28.783872 0.271999 53.695761 23.463896 53.991759 52.599766v342.190476l-99.671556 0.199999V115.700045z m249.942887 846.52423l9.487958-170.759239a30.879862 30.879862 0 0 0-29.14387-32.543856c-17.167924-0.759997-31.607859 12.095946-32.543855 29.111871l-9.671957 174.191224H533.063906l9.735957-170.72724a30.879862 30.879862 0 0 0-29.079871-32.575855c-17.159924-0.663997-31.623859 12.063946-32.607854 29.079871l-9.927956 174.223224H360.608674l9.319959-170.791239a30.879862 30.879862 0 0 0-29.151871-32.511856c-17.023924-0.839996-31.599859 12.095946-32.527855 29.143871l-9.503957 174.167224H187.985443c9.543957-91.039595 34.583846-332.734518 35.559842-371.374346 1.671993-65.879707 71.91168-71.607681 78.47165-71.99968l415.974148-0.815996c9.01596 0 54.327758 2.439989 61.143727 50.759774 6.367972 45.215799 41.895813 299.222668 55.079755 393.430248H711.79111z" p-id="20646"></path></svg>