<?xml version="1.0" standalone="no"?><!DOCTYPE svg PUBLIC "-//W3C//DTD SVG 1.1//EN" "http://www.w3.org/Graphics/SVG/1.1/DTD/svg11.dtd"><svg t="1552450178188" class="icon" style="" viewBox="0 0 1024 1024" version="1.1" xmlns="http://www.w3.org/2000/svg" p-id="20775" xmlns:xlink="http://www.w3.org/1999/xlink" width="200" height="200"><defs><style type="text/css"></style></defs><path d="M947.2 1024h-593.92c-42.496 0-76.8-34.304-76.8-76.8V209.408c0-42.496 34.304-76.8 76.8-76.8h593.92c42.496 0 76.8 34.304 76.8 76.8v737.792c0 41.984-34.304 76.8-76.8 76.8z m-593.92-840.192c-14.336 0-25.6 11.264-25.6 25.6v737.792c0 14.336 11.264 25.6 25.6 25.6h593.92c14.336 0 25.6-11.264 25.6-25.6V209.408c0-14.336-11.264-25.6-25.6-25.6h-593.92z" p-id="20776"></path><path d="M204.8 891.392h-128c-42.496 0-76.8-34.304-76.8-76.8V76.8c0-42.496 34.304-76.8 76.8-76.8h593.92c42.496 0 76.8 34.304 76.8 76.8 0 14.336-11.264 25.6-25.6 25.6s-25.6-11.264-25.6-25.6-11.264-25.6-25.6-25.6h-593.92c-14.336 0-25.6 11.264-25.6 25.6V814.592c0 14.336 11.264 25.6 25.6 25.6h128c14.336 0 25.6 11.264 25.6 25.6s-11.264 25.6-25.6 25.6z" p-id="20777"></path><path d="M865.28 373.248h-430.08c-14.336 0-25.6-11.264-25.6-25.6s11.264-25.6 25.6-25.6h430.08c14.336 0 25.6 11.264 25.6 25.6s-11.264 25.6-25.6 25.6zM762.88 556.032h-327.68c-14.336 0-25.6-11.264-25.6-25.6s11.264-25.6 25.6-25.6h327.68c14.336 0 25.6 11.264 25.6 25.6s-11.264 25.6-25.6 25.6zM627.2 739.328H435.2c-14.336 0-25.6-11.264-25.6-25.6s11.264-25.6 25.6-25.6h192c14.336 0 25.6 11.264 25.6 25.6s-11.264 25.6-25.6 25.6z" p-id="20778"></path></svg>