<?xml version="1.0" standalone="no"?><!DOCTYPE svg PUBLIC "-//W3C//DTD SVG 1.1//EN" "http://www.w3.org/Graphics/SVG/1.1/DTD/svg11.dtd"><svg t="1555515798045" class="icon" style="" viewBox="0 0 1024 1024" version="1.1" xmlns="http://www.w3.org/2000/svg" p-id="15424" xmlns:xlink="http://www.w3.org/1999/xlink" width="200" height="200"><defs><style type="text/css"></style></defs><path d="M921.6 378.12224H61.44v-59.06432C61.44 255.95904 109.568 204.8 168.96 204.8h645.12c59.392 0 107.52 51.15904 107.52 114.2784v59.04384z m0 77.35296v331.3664c0 63.11936-48.128 114.2784-107.52 114.2784H168.96C109.568 901.12 61.44 849.96096 61.44 786.8416V455.4752h860.16zM129.35168 529.75616v123.78112H400.9984v-123.78112H129.35168z m720.1792 48.04608c8.31488-23.79776 1.45408-35.67616-20.56192-35.67616H790.9376l-56.832 101.9904-6.36928 17.69472h-0.75776l-2.62144-18.51392c-7.65952-23.3472-14.7456-46.8992-21.2992-70.656-5.57056-20.35712-17.89952-30.5152-37.00736-30.5152h-53.4528l46.67392 121.71264h-38.44096c-5.59104 34.28352 0.94208 51.42528 19.59936 51.42528h38.76864l4.13696 11.07968-1.51552 13.16864-70.08256 0.06144c-10.71104 35.88096-1.72032 53.82144 26.99264 53.82144h35.9424c-0.53248 5.69344-1.14688 11.59168-1.96608 17.79712-3.03104 24.14592 22.89664 24.14592 34.73408 24.14592h32.68608l5.26336-41.94304h65.45408c6.7584-35.88096 0.14336-53.82144-19.90656-53.82144-20.0704 0-32.9728 0-38.76864-0.06144l1.88416-13.55776 7.14752-10.69056h59.8016c6.26688-34.07872 0.53248-51.36384-17.22368-51.8144a196.23936 196.23936 0 0 0-9.46176 0l55.23456-85.64736z" p-id="15425"></path></svg>