<?xml version="1.0" standalone="no"?><!DOCTYPE svg PUBLIC "-//W3C//DTD SVG 1.1//EN" "http://www.w3.org/Graphics/SVG/1.1/DTD/svg11.dtd"><svg t="1552450167299" class="icon" style="" viewBox="0 0 1024 1024" version="1.1" xmlns="http://www.w3.org/2000/svg" p-id="20383" xmlns:xlink="http://www.w3.org/1999/xlink" width="200" height="200"><defs><style type="text/css"></style></defs><path d="M535.32 23.85C525.06 8 498.94 8 488.68 23.85 476 43.34 178.4 503.29 178.4 678.4 178.4 862.36 328 1012 512 1012s333.6-149.64 333.6-333.6c0-175.11-297.6-635.06-310.28-654.55zM512 956.4c-153.28 0-278-124.72-278-278 0-120.86 183-436.79 278-587.74 95 150.95 278 466.87 278 587.74 0 153.28-124.72 278-278 278z" p-id="20384"></path><path d="M706.6 650.6a27.78 27.78 0 0 0-27.8 27.8c0 92-74.82 166.8-166.8 166.8a27.8 27.8 0 0 0 0 55.6c122.63 0 222.4-99.77 222.4-222.4a27.78 27.78 0 0 0-27.8-27.8z" p-id="20385"></path></svg>